<svg width="23" height="32" viewBox="0 0 23 32" fill="none" xmlns="http://www.w3.org/2000/svg">
<path d="M16.6714 28.4144H3.62857L1.69995 10.6287H18.6143L16.6714 28.4144Z" fill="#1226AA"/>
<path d="M10.1572 9.7854H0.62854L1.30001 15.4711H10.1572H19L19.6857 9.7854H10.1572Z" fill="#1226AA"/>
<path d="M10.1572 13.2857C15.4197 13.2857 19.6857 11.6611 19.6857 9.65714C19.6857 7.65313 15.4197 6.02856 10.1572 6.02856C4.89469 6.02856 0.62854 7.65313 0.62854 9.65714C0.62854 11.6611 4.89469 13.2857 10.1572 13.2857Z" fill="#1226AA"/>
<path d="M10.1572 21.0571C15.041 21.0571 19.0001 19.4837 19.0001 17.5428C19.0001 15.602 15.041 14.0286 10.1572 14.0286C5.27342 14.0286 1.31433 15.602 1.31433 17.5428C1.31433 19.4837 5.27342 21.0571 10.1572 21.0571Z" fill="white"/>
<path d="M10.1572 18.9282C15.041 18.9282 19.0001 17.3548 19.0001 15.4139C19.0001 13.4731 15.041 11.8997 10.1572 11.8997C5.27342 11.8997 1.31433 13.4731 1.31433 15.4139C1.31433 17.3548 5.27342 18.9282 10.1572 18.9282Z" fill="#1226AA"/>
<path d="M10.1571 31.7429C13.7628 31.7429 16.6856 30.1951 16.6856 28.2858C16.6856 26.3764 13.7628 24.8286 10.1571 24.8286C6.55149 24.8286 3.62854 26.3764 3.62854 28.2858C3.62854 30.1951 6.55149 31.7429 10.1571 31.7429Z" fill="#1226AA"/>
<path d="M10.1572 12.1858C14.4729 12.1858 17.9715 11.0921 17.9715 9.74291C17.9715 8.39375 14.4729 7.30005 10.1572 7.30005C5.84152 7.30005 2.3429 8.39375 2.3429 9.74291C2.3429 11.0921 5.84152 12.1858 10.1572 12.1858Z" fill="white"/>
<path d="M12.3428 14.757L10.5 14.457L12.6286 1.59983C12.6714 1.3284 12.8285 1.09983 13.0571 0.956974C13.2857 0.814117 13.5714 0.785546 13.8285 0.856974L22.2285 3.5284L21.6571 5.31412L14.2857 2.97126L12.3428 14.757Z" fill="#1226AA"/>
</svg>
