<svg width="350" height="38" viewBox="0 0 350 38" fill="none" xmlns="http://www.w3.org/2000/svg">
<path d="M283.17 28.3667C287.179 28.3667 289.519 27.1084 289.505 24.961C289.505 22.8137 286.794 22.2803 282.6 21.1177C276.621 19.5175 269.074 17.4659 269.06 10.1212C269.06 3.85699 274.553 0.0136773 283.227 0C288.364 0 292.744 1.34037 296.753 4.10318L292.487 9.84764C289.876 7.79605 286.423 6.63348 282.97 6.63348C279.332 6.63348 277.007 7.89179 277.007 9.76558C277.007 11.7351 279.717 12.7199 284.469 13.9645C290.347 15.4827 297.623 17.4385 297.623 24.4139C297.623 31.0338 292.216 34.8771 282.985 34.8907C277.007 34.8907 271.414 33.1127 267.676 29.8985L272.056 24.1678C274.952 26.8485 278.876 28.3667 283.17 28.3667Z" fill="#FF671D"/>
<path d="M254.05 0.642217V20.6658C254.05 25.4938 251.254 28.2703 246.217 28.2703C241.181 28.2703 238.384 25.5075 238.37 20.6794L238.356 0.642217H230.337L230.351 20.953C230.351 29.5423 236.33 35.0816 246.217 35.0679C256.105 35.0679 262.068 29.515 262.068 20.9256L262.054 0.62854H254.05V0.642217Z" fill="#FF671D"/>
<path d="M326.173 0.601568V17.8349H311.62V0.601568L303.573 0.615245V34.6033L311.62 34.5896V25.2344H326.173V34.5759H334.191V0.587891L326.173 0.601568Z" fill="#FF671D"/>
<path d="M350 0.587891H341.967V34.5759H350V0.587891Z" fill="#FF671D"/>
<path d="M201.074 18.0268C202.529 8.49377 190.816 1.70984 190.816 1.70984C190.816 1.70984 192.028 3.2964 191.6 6.34644L196.009 12.2003L191.072 8.52112C190.887 9.05454 190.644 9.62898 190.345 10.2171L195.41 16.96L189.332 12.4328C189.146 12.9526 188.989 13.4723 188.875 13.9647L194.154 20.9948L188.704 16.9327C189.146 21.2 192.556 24.2226 195.153 25.9186C192.299 24.633 187.862 23.3199 183.796 25.098L190.202 27.5736L181.199 26.7529C180.8 27.0949 180.415 27.4778 180.044 27.9018L187.192 30.651L178.56 29.8577C178.174 30.4048 177.789 30.8835 177.404 31.3075L183.211 33.5505L175.72 32.853C173.195 34.7405 171.155 34.5353 171.155 34.5353C171.155 34.5353 183.168 40.8132 191.03 34.8089C192.485 33.701 193.726 32.5658 194.753 31.54C197.222 29.0781 199.034 26.0417 200.018 22.7592C200.403 21.3914 200.803 19.7912 201.074 18.0268Z" fill="#FF671D"/>
<path d="M212.417 14.1693C207.651 12.9247 204.941 11.94 204.941 9.95675C204.941 8.06928 207.28 6.82465 210.919 6.81097C212.774 6.81097 214.628 7.13923 216.355 7.76838C219.037 8.73947 222.048 7.89148 223.717 5.66208L224.744 4.29435C223.731 3.59681 222.69 2.98133 221.634 2.4616C218.466 0.916063 215.042 0.17749 211.19 0.17749C205.04 0.17749 200.503 2.11966 198.363 5.4706C201.245 8.64373 203.813 13.0478 203.014 18.2862C202.986 18.4367 202.957 18.5734 202.929 18.7239C205.312 19.9001 208.065 20.6524 210.562 21.3226C214.771 22.4851 217.482 23.0185 217.482 25.1659C217.482 27.3132 215.142 28.5715 211.133 28.5715C207.38 28.5715 203.913 27.409 201.16 25.33C200.261 27.5321 198.991 29.5973 197.436 31.4438C201.06 33.8099 205.868 35.1229 210.962 35.1093C220.207 35.1093 225.629 31.2523 225.629 24.6188C225.586 17.6434 218.295 15.6875 212.417 14.1693Z" fill="#FF671D"/>
<path d="M116.767 0.575195H108.035H102.356L102.385 34.5769H110.318V27.8887H116.781C124.642 27.8887 131.02 21.775 131.02 14.2388C131.02 6.70262 124.628 0.575195 116.767 0.575195ZM116.281 21.2689H110.289V7.195H116.281C120.333 7.195 123.615 10.3408 123.615 14.2251C123.615 18.1095 120.333 21.2689 116.281 21.2689Z" fill="#FF671D"/>
<path d="M150.724 0.21936C141.892 0.21936 134.729 7.08536 134.729 15.5516V19.6274C134.729 28.0937 141.892 34.9597 150.724 34.9597C159.555 34.9597 166.718 28.4903 166.718 20.0241V15.5653C166.718 7.08536 159.555 0.21936 150.724 0.21936ZM159.413 19.1898C159.413 23.7853 155.517 27.5192 150.724 27.5192C145.93 27.5192 142.035 23.7853 142.035 19.1898V15.9756C142.035 11.38 145.93 7.64612 150.724 7.64612C155.517 7.64612 159.413 11.38 159.413 15.9756V19.1898Z" fill="#FF671D"/>
<path d="M83.8368 0.575195H75.105H69.4265L69.455 34.5769H77.3879V27.8887H83.8511C91.7126 27.8887 98.0902 21.775 98.0902 14.2388C98.0902 6.70262 91.7126 0.575195 83.8368 0.575195ZM83.366 21.2689H77.3736V7.195H83.366C87.418 7.195 90.6996 10.3408 90.6996 14.2251C90.6996 18.1095 87.418 21.2689 83.366 21.2689Z" fill="#FF671D"/>
<path d="M64.9321 27.93L51.2209 0.534424H47.2402H43.2596L29.5483 27.93V34.6182H35.3981L38.6939 27.9163H55.7866L59.0681 34.5909L64.9321 34.6045V27.93ZM41.9755 21.2692L47.2545 10.5462L52.5335 21.2692H41.9755Z" fill="#FF671D"/>
<path d="M35.0271 0.534424H25.8958L17.5207 17.59L9.1313 0.534424H0L13.4972 27.506V34.6182H21.5299V27.506L35.0271 0.534424Z" fill="#FF671D"/>
</svg>
