<svg width="30" height="28" viewBox="0 0 30 28" fill="none" xmlns="http://www.w3.org/2000/svg">
<path d="M0.642822 10.9995C0.642822 10.1709 1.22854 8.65666 1.71425 7.84237C2.12854 7.15666 1.57141 5.54237 2.28569 4.9138C2.89998 4.37094 4.48568 5.07094 5.28568 4.6138C6.01425 4.19951 6.15712 2.47094 7.01426 2.14237C7.79997 1.84237 9.0857 2.99951 9.97141 2.78523C10.8 2.58523 11.4 0.956656 12.2857 0.84237C13.1428 0.74237 14.1 2.18523 15 2.18523C15.9 2.18523 16.8571 0.74237 17.7143 0.84237C18.6 0.94237 19.2 2.57094 20.0285 2.78523C20.9143 2.99951 22.2 1.84237 22.9857 2.14237C23.8428 2.47094 23.9857 4.19951 24.7143 4.6138C25.5143 5.08523 27.1 4.38523 27.7285 4.9138C28.4428 5.54237 27.8857 7.15666 28.3 7.84237C28.7857 8.65666 29.3714 10.1709 29.3714 10.9995H0.642822Z" fill="#1226AA"/>
<path d="M27.357 11.3564H2.65698V22.6707H27.357V11.3564Z" fill="#1226AA"/>
<path d="M15 27.9567C21.8246 27.9567 27.3571 25.5902 27.3571 22.671C27.3571 19.7517 21.8246 17.3853 15 17.3853C8.17529 17.3853 2.64282 19.7517 2.64282 22.671C2.64282 25.5902 8.17529 27.9567 15 27.9567Z" fill="#1226AA"/>
<path d="M29.6856 14.1139C29.6856 18.2282 23.1142 21.5568 15.0142 21.5568C6.91421 21.5568 0.342773 18.2282 0.342773 14.1139C0.342773 9.99961 6.91421 5.59961 15.0142 5.59961C23.1142 5.59961 29.6856 9.99961 29.6856 14.1139Z" fill="white"/>
<path d="M29.6856 11.7423C29.6856 15.8566 23.1142 19.1852 15.0142 19.1852C6.91421 19.1852 0.342773 15.8566 0.342773 11.7423C0.342773 7.62803 6.91421 3.22803 15.0142 3.22803C23.1142 3.22803 29.6856 7.64231 29.6856 11.7423Z" fill="#1226AA"/>
</svg>
