<svg width="34" height="33" viewBox="0 0 34 33" fill="none" xmlns="http://www.w3.org/2000/svg">
<path d="M28.3717 0.713977L0.360352 28.7253L1.68364 30.0486L29.695 2.03726L28.3717 0.713977Z" fill="#1226AA"/>
<path d="M32.4036 5.19331L0.859253 29.1765L1.99184 30.6662L33.5362 6.68297L32.4036 5.19331Z" fill="#1226AA"/>
<path d="M17.2857 25.357C24.1577 25.357 29.7285 23.0992 29.7285 20.3141C29.7285 17.529 24.1577 15.2712 17.2857 15.2712C10.4137 15.2712 4.8429 17.529 4.8429 20.3141C4.8429 23.0992 10.4137 25.357 17.2857 25.357Z" fill="white"/>
<path d="M17.2857 25.343C12.6714 25.343 8.65702 24.3287 6.49988 22.8145L9.55704 29.4859C9.55704 29.4859 9.55704 29.4859 9.55704 29.5002L9.61424 29.6287H9.62854C10.4714 31.1859 13.5714 32.343 17.2714 32.343C20.9714 32.343 24.0713 31.1859 24.9142 29.6287H24.9285L24.9857 29.5002C24.9857 29.5002 24.9857 29.5002 24.9857 29.4859L28.0428 22.8145C25.9143 24.3145 21.8999 25.343 17.2857 25.343Z" fill="#1226AA"/>
<path d="M17.2857 23.8284C24.1577 23.8284 29.7285 21.5706 29.7285 18.7855C29.7285 16.0004 24.1577 13.7427 17.2857 13.7427C10.4137 13.7427 4.8429 16.0004 4.8429 18.7855C4.8429 21.5706 10.4137 23.8284 17.2857 23.8284Z" fill="#1226AA"/>
<path d="M18.4859 19.1429C18.9431 17.7572 15.2003 16.7715 15.2003 16.7715C15.2003 16.7715 15.5859 17.0001 15.4573 17.4429L16.8716 18.3001L15.2859 17.7715C15.2288 17.8429 15.143 17.9286 15.0573 18.0143L16.6859 19.0001L14.7431 18.3429C14.6859 18.4143 14.6288 18.5001 14.6002 18.5715L16.2859 19.6001L14.543 19.0143C14.6859 19.6286 15.7717 20.0715 16.6146 20.3286C15.7003 20.1429 14.2859 19.9572 12.9716 20.2143L15.0289 20.5715L12.1431 20.4572C12.0146 20.5001 11.886 20.5572 11.7717 20.6286L14.0574 21.0286L11.2859 20.9143C11.1573 21.0001 11.0432 21.0715 10.9146 21.1286L12.7716 21.4572L10.3717 21.3572C9.57172 21.6286 8.91455 21.6001 8.91455 21.6001C8.91455 21.6001 12.7574 22.5143 15.2859 21.6429C15.7574 21.4858 16.1573 21.3143 16.4859 21.1715C17.2716 20.8143 17.8574 20.3715 18.1717 19.9001C18.2717 19.6286 18.4002 19.4001 18.4859 19.1429Z" fill="white"/>
<path d="M22.1145 18.5711C20.5859 18.3853 19.7144 18.2425 19.7144 17.9568C19.7144 17.6853 20.4574 17.4996 21.6288 17.4996C22.2288 17.4996 22.8145 17.5425 23.3716 17.6425C24.2288 17.7853 25.2002 17.6568 25.7288 17.3425L26.0573 17.1425C25.7288 17.0425 25.4001 16.9568 25.0572 16.8711C24.0429 16.6425 22.943 16.5425 21.7144 16.5425C19.743 16.5425 18.2858 16.8282 17.6001 17.3139C18.5144 17.7711 19.343 18.4139 19.0859 19.1853C19.0716 19.1996 19.0716 19.2282 19.0573 19.2425C19.8144 19.4139 20.7001 19.5282 21.5001 19.6139C22.843 19.7853 23.7145 19.8568 23.7145 20.1711C23.7145 20.4853 22.9715 20.6711 21.6858 20.6711C20.4858 20.6711 19.3716 20.4996 18.4858 20.1996C18.2001 20.5139 17.7859 20.8282 17.2859 21.0853C18.443 21.4282 19.9859 21.6139 21.6145 21.6139C24.5716 21.6139 26.3144 21.0568 26.3144 20.0853C26.343 19.0853 24.0002 18.7996 22.1145 18.5711Z" fill="white"/>
<path d="M11.7717 17.414L9.14296 14.9712C8.44296 15.214 7.81447 15.4998 7.25732 15.7998L10.5574 18.7712V19.7283H12.9716V18.7712L17.0287 15.0855H14.286L11.7717 17.414Z" fill="white"/>
</svg>
