<svg width="26" height="26" viewBox="0 0 26 26" fill="none" xmlns="http://www.w3.org/2000/svg">
<path d="M7.8001 11.3856H0.857178V4.44274H4.32868V7.91417H7.8001V11.3856ZM0.857178 21.7999H4.32868V25.2713H0.857178V21.7999ZM7.8001 4.45702H4.32868V0.985596H11.2715V7.92845H7.8001V4.45702ZM4.32868 18.3285H7.8001V21.7999H4.32868V18.3285ZM7.8001 14.857H11.2715V18.3285H7.8001V14.857ZM11.2715 11.3856H14.7429V14.857H11.2715V11.3856ZM14.7429 7.92845H18.2144V11.3999H14.7429V7.92845ZM18.2144 21.7999H21.6858V25.2713H14.7429V18.3285H18.2144V21.7999ZM18.2144 4.45702H21.6858V7.92845H18.2144V4.45702ZM18.2144 14.857H25.1572V21.7999H21.6858V18.3285H18.2144V14.857ZM25.1429 0.985596V4.45702H21.6715V0.985596H25.1429Z" fill="#1226AA"/>
</svg>
