<svg width="30" height="26" viewBox="0 0 30 26" fill="none" xmlns="http://www.w3.org/2000/svg">
<path d="M29.2858 6.77148H0.714355V19.8572H29.2858V6.77148Z" fill="#1226AA"/>
<path d="M15.0001 12.886C22.8899 12.886 29.2858 10.1486 29.2858 6.77176C29.2858 3.39493 22.8899 0.657471 15.0001 0.657471C7.11029 0.657471 0.714355 3.39493 0.714355 6.77176C0.714355 10.1486 7.11029 12.886 15.0001 12.886Z" fill="#1226AA"/>
<path d="M15.0001 25.9861C22.8899 25.9861 29.2858 23.2487 29.2858 19.8719C29.2858 16.495 22.8899 13.7576 15.0001 13.7576C7.11029 13.7576 0.714355 16.495 0.714355 19.8719C0.714355 23.2487 7.11029 25.9861 15.0001 25.9861Z" fill="#1226AA"/>
<path d="M15 11.858C21.5485 11.858 26.8571 9.581 26.8571 6.77224C26.8571 3.96347 21.5485 1.68652 15 1.68652C8.45145 1.68652 3.14282 3.96347 3.14282 6.77224C3.14282 9.581 8.45145 11.858 15 11.858Z" fill="white"/>
<path d="M15 10.6862C20.0495 10.6862 24.1429 8.93375 24.1429 6.77195C24.1429 4.61015 20.0495 2.85767 15 2.85767C9.95058 2.85767 5.85718 4.61015 5.85718 6.77195C5.85718 8.93375 9.95058 10.6862 15 10.6862Z" fill="#1226AA"/>
</svg>
