<svg width="34" height="29" viewBox="0 0 34 29" fill="none" xmlns="http://www.w3.org/2000/svg">
<path d="M4.6001 16.2712C4.6001 16.2712 4.6001 16.2855 4.6001 16.2712C4.64295 16.2998 4.70008 16.3284 4.75722 16.357C4.70008 16.3284 4.65724 16.2998 4.6001 16.2712Z" fill="#1226AA"/>
<path d="M17.0001 18.585C7.92868 18.585 0.571533 15.585 0.571533 11.885V12.6564C0.571533 20.9422 7.18581 28.1136 15.8715 28.6279C16.2429 28.6564 16.6144 28.6564 17.0001 28.6564C17.3715 28.6564 17.7573 28.6422 18.1287 28.6279C26.8144 28.1136 33.4287 20.9422 33.4287 12.6564V11.885C33.4287 15.5993 26.0715 18.585 17.0001 18.585Z" fill="#1226AA"/>
<path d="M22.0429 3.6857C22.0429 3.6857 21.7286 2.0857 21.9 1.54284C22.0715 0.999986 22.5858 0.242844 23.4715 0.199986C24.9286 0.128558 25.1857 1.37141 25.1857 1.37141C25.1857 1.37141 26.0715 0.699986 27.1572 1.44284C28.1143 2.09999 27.9143 3.12856 27.9143 3.12856C27.9143 3.12856 29.0286 2.77141 29.7715 3.99999C30.3286 4.91427 29.9143 6.17141 29.2286 6.65713C28.5429 7.14284 27.7143 7.32856 27.7143 7.32856C27.7143 7.32856 27.3429 6.27142 25.3286 4.89999C23.4857 3.65713 22.0429 3.6857 22.0429 3.6857Z" fill="#1226AA"/>
<path d="M28.3143 14.4713L28.7571 14.0855C28.7571 14.0855 30.1286 12.7713 30.3143 11.3713C30.5 9.97126 29.8143 9.6284 29.3857 9.59983C29.0571 9.58554 28.7571 9.49983 28.2714 9.79983C28.2714 10.4284 28.1572 11.0998 27.9286 11.7998C27.7429 12.3713 26.8 13.9284 25.8857 15.3427C26.8715 15.0855 27.6857 14.7998 28.3143 14.4713Z" fill="#1226AA"/>
<path d="M17.0001 16.2708C19.6572 16.2708 22.1286 16.0565 24.1572 15.6994C24.6144 14.9565 25.0857 14.1708 25.5429 13.3137C25.8857 12.6851 26.1143 12.4565 26.5429 11.2708C27.0143 9.91369 26.8572 8.84226 26.1858 7.92797C25.5143 7.01369 23.5001 5.45654 21.8286 5.45654C20.1572 5.45654 19.2286 6.82797 18.2858 8.81369C17.7572 9.94226 17.1429 11.2708 16.6001 13.128C16.3001 14.1708 16.0001 15.228 15.7144 16.2423C16.1429 16.2708 16.5715 16.2708 17.0001 16.2708Z" fill="#1226AA"/>
<path d="M6.84295 8.59972C7.22867 8.84258 7.57153 9.14258 7.87153 9.47115C8.17153 9.14258 8.51439 8.85687 8.9001 8.61401C9.82867 8.02829 10.9144 7.67115 11.7858 7.67115C12.4716 7.67115 13.0287 7.88544 13.443 8.31401C14.3287 9.2283 14.5144 10.814 13.6001 12.814C12.9001 14.3426 11.6287 15.4854 10.943 15.8569C11.9287 15.9854 13.3144 16.1712 14.4287 16.2283C14.443 16.1997 14.4573 16.1712 14.4573 16.1426C14.7573 14.9712 15.1287 13.614 15.5715 12.1426C15.8573 11.0569 16.3144 9.57115 17.0144 8.11401C17.3573 7.38544 17.8715 6.35687 18.6287 5.49972C18.6572 5.47115 18.6858 5.44258 18.7001 5.41401C18.8144 5.28544 18.9144 5.15687 19.043 5.04258C18.9858 4.97115 18.943 4.89972 18.8715 4.81401C17.7573 3.32829 16.343 3.31401 16.343 3.31401C16.243 2.05687 14.9287 -0.100277 11.9573 0.214009C9.38584 0.485438 8.77154 3.47115 8.77154 3.47115C8.77154 3.47115 7.51441 3.35687 6.24298 5.1283C5.45726 6.21401 5.44298 7.39972 5.48584 7.97115C5.9287 8.09972 6.4001 8.31401 6.84295 8.59972Z" fill="#1226AA"/>
<path d="M5.11441 14.2281C6.07155 14.6996 7.40014 15.1139 8.97157 15.4567C9.88585 14.9996 10.3144 14.5853 10.7144 14.2424C11.1144 13.9139 11.8287 13.171 12.2287 12.171C12.7573 10.8567 12.8144 9.84243 12.4144 9.42814C12.0001 8.99957 10.6573 9.28528 9.6144 9.95671C8.57154 10.6139 7.98585 11.8139 7.85728 12.4281C7.72871 11.8139 7.14298 10.6281 6.10012 9.95671C5.05727 9.29957 3.71442 8.99957 3.30014 9.42814C2.90014 9.84243 2.98586 10.8424 3.48586 12.171C3.97157 13.4567 5.05726 14.1853 5.11441 14.2281Z" fill="#1226AA"/>
</svg>
