<svg width="36" height="30" viewBox="0 0 36 30" fill="none" xmlns="http://www.w3.org/2000/svg">
<path d="M15.8323 0.920798V12.5208H21.1466V0.920798H15.8323Z" fill="#1226AA"/>
<path d="M15.8429 12.5283C17.2157 12.5283 18.3286 9.93155 18.3286 6.7283C18.3286 3.52505 17.2157 0.928299 15.8429 0.928299C14.47 0.928299 13.3571 3.52505 13.3571 6.7283C13.3571 9.93155 14.47 12.5283 15.8429 12.5283Z" fill="#1226AA"/>
<path d="M21.1571 12.5283C22.5299 12.5283 23.6428 9.93155 23.6428 6.7283C23.6428 3.52505 22.5299 0.928299 21.1571 0.928299C19.7843 0.928299 18.6714 3.52505 18.6714 6.7283C18.6714 9.93155 19.7843 12.5283 21.1571 12.5283Z" fill="#1226AA"/>
<path d="M15.8428 11.5432C16.9868 11.5432 17.9143 9.38777 17.9143 6.72891C17.9143 4.07006 16.9868 1.91463 15.8428 1.91463C14.6988 1.91463 13.7714 4.07006 13.7714 6.72891C13.7714 9.38777 14.6988 11.5432 15.8428 11.5432Z" fill="white"/>
<path d="M15.8429 10.4432C16.7186 10.4432 17.4286 8.78029 17.4286 6.72895C17.4286 4.67761 16.7186 3.01466 15.8429 3.01466C14.9671 3.01466 14.2571 4.67761 14.2571 6.72895C14.2571 8.78029 14.9671 10.4432 15.8429 10.4432Z" fill="#1226AA"/>
<path d="M21.3403 7.94967V19.5497H26.6546V7.94967H21.3403Z" fill="#1226AA"/>
<path d="M21.3428 19.5427C22.7156 19.5427 23.8285 16.946 23.8285 13.7427C23.8285 10.5395 22.7156 7.94273 21.3428 7.94273C19.97 7.94273 18.8571 10.5395 18.8571 13.7427C18.8571 16.946 19.97 19.5427 21.3428 19.5427Z" fill="#1226AA"/>
<path d="M26.657 19.5425C28.0299 19.5425 29.1428 16.9458 29.1428 13.7425C29.1428 10.5393 28.0299 7.94252 26.657 7.94252C25.2842 7.94252 24.1713 10.5393 24.1713 13.7425C24.1713 16.9458 25.2842 19.5425 26.657 19.5425Z" fill="#1226AA"/>
<path d="M21.3428 18.5567C22.4868 18.5567 23.4142 16.4013 23.4142 13.7424C23.4142 11.0836 22.4868 8.92816 21.3428 8.92816C20.1987 8.92816 19.2713 11.0836 19.2713 13.7424C19.2713 16.4013 20.1987 18.5567 21.3428 18.5567Z" fill="white"/>
<path d="M21.3428 17.4568C22.2186 17.4568 22.9285 15.7938 22.9285 13.7425C22.9285 11.6911 22.2186 10.0282 21.3428 10.0282C20.467 10.0282 19.7571 11.6911 19.7571 13.7425C19.7571 15.7938 20.467 17.4568 21.3428 17.4568Z" fill="#1226AA"/>
<path d="M27.2296 15.4946V27.0946H32.5439V15.4946H27.2296Z" fill="#1226AA"/>
<path d="M27.2285 27.086C28.6013 27.086 29.7142 24.4892 29.7142 21.286C29.7142 18.0827 28.6013 15.486 27.2285 15.486C25.8557 15.486 24.7428 18.0827 24.7428 21.286C24.7428 24.4892 25.8557 27.086 27.2285 27.086Z" fill="#1226AA"/>
<path d="M32.5428 27.0861C33.9156 27.0861 35.0285 24.4893 35.0285 21.2861C35.0285 18.0828 33.9156 15.4861 32.5428 15.4861C31.17 15.4861 30.0571 18.0828 30.0571 21.2861C30.0571 24.4893 31.17 27.0861 32.5428 27.0861Z" fill="#1226AA"/>
<path d="M27.2285 26.1003C28.3725 26.1003 29.2999 23.9448 29.2999 21.286C29.2999 18.6271 28.3725 16.4717 27.2285 16.4717C26.0845 16.4717 25.1571 18.6271 25.1571 21.286C25.1571 23.9448 26.0845 26.1003 27.2285 26.1003Z" fill="white"/>
<path d="M27.2285 25.0003C28.1043 25.0003 28.8142 23.3373 28.8142 21.286C28.8142 19.2347 28.1043 17.5717 27.2285 17.5717C26.3528 17.5717 25.6428 19.2347 25.6428 21.286C25.6428 23.3373 26.3528 25.0003 27.2285 25.0003Z" fill="#1226AA"/>
<path d="M12.3571 8.20027H0.757095V13.5146H12.3571V8.20027Z" fill="#1226AA"/>
<path d="M6.55711 10.6855C9.76036 10.6855 12.3571 9.57262 12.3571 8.19979C12.3571 6.82697 9.76036 5.71408 6.55711 5.71408C3.35386 5.71408 0.757111 6.82697 0.757111 8.19979C0.757111 9.57262 3.35386 10.6855 6.55711 10.6855Z" fill="#1226AA"/>
<path d="M6.5571 16.0002C9.76035 16.0002 12.3571 14.8873 12.3571 13.5145C12.3571 12.1417 9.76035 11.0288 6.5571 11.0288C3.35384 11.0288 0.757095 12.1417 0.757095 13.5145C0.757095 14.8873 3.35384 16.0002 6.5571 16.0002Z" fill="#1226AA"/>
<path d="M6.5571 10.2714C9.21596 10.2714 11.3714 9.344 11.3714 8.19998C11.3714 7.05597 9.21596 6.12856 6.5571 6.12856C3.89824 6.12856 1.74281 7.05597 1.74281 8.19998C1.74281 9.344 3.89824 10.2714 6.5571 10.2714Z" fill="white"/>
<path d="M6.55714 9.78549C8.60848 9.78549 10.2714 9.07554 10.2714 8.19977C10.2714 7.32401 8.60848 6.61406 6.55714 6.61406C4.50579 6.61406 2.84285 7.32401 2.84285 8.19977C2.84285 9.07554 4.50579 9.78549 6.55714 9.78549Z" fill="#1226AA"/>
<path d="M18 14.286H6.39998V19.6003H18V14.286Z" fill="#1226AA"/>
<path d="M12.2 16.7716C15.4032 16.7716 18 15.6587 18 14.2859C18 12.913 15.4032 11.8002 12.2 11.8002C8.99674 11.8002 6.39999 12.913 6.39999 14.2859C6.39999 15.6587 8.99674 16.7716 12.2 16.7716Z" fill="#1226AA"/>
<path d="M12.2 22.086C15.4032 22.086 18 20.9731 18 19.6002C18 18.2274 15.4032 17.1145 12.2 17.1145C8.99673 17.1145 6.39998 18.2274 6.39998 19.6002C6.39998 20.9731 8.99673 22.086 12.2 22.086Z" fill="#1226AA"/>
<path d="M12.2 16.3572C14.8588 16.3572 17.0143 15.4297 17.0143 14.2857C17.0143 13.1417 14.8588 12.2143 12.2 12.2143C9.54113 12.2143 7.3857 13.1417 7.3857 14.2857C7.3857 15.4297 9.54113 16.3572 12.2 16.3572Z" fill="white"/>
<path d="M12.2 15.8712C14.2513 15.8712 15.9143 15.1613 15.9143 14.2855C15.9143 13.4097 14.2513 12.6998 12.2 12.6998C10.1487 12.6998 8.48572 13.4097 8.48572 14.2855C8.48572 15.1613 10.1487 15.8712 12.2 15.8712Z" fill="#1226AA"/>
<path d="M23.3857 21.2573H11.7857V26.5716H23.3857V21.2573Z" fill="#1226AA"/>
<path d="M17.5856 23.7429C20.7889 23.7429 23.3856 22.63 23.3856 21.2571C23.3856 19.8843 20.7889 18.7714 17.5856 18.7714C14.3824 18.7714 11.7856 19.8843 11.7856 21.2571C11.7856 22.63 14.3824 23.7429 17.5856 23.7429Z" fill="#1226AA"/>
<path d="M17.5857 29.0573C20.7889 29.0573 23.3857 27.9444 23.3857 26.5716C23.3857 25.1988 20.7889 24.0859 17.5857 24.0859C14.3824 24.0859 11.7857 25.1988 11.7857 26.5716C11.7857 27.9444 14.3824 29.0573 17.5857 29.0573Z" fill="#1226AA"/>
<path d="M17.5857 23.3285C20.2445 23.3285 22.3999 22.4011 22.3999 21.2571C22.3999 20.113 20.2445 19.1856 17.5857 19.1856C14.9268 19.1856 12.7714 20.113 12.7714 21.2571C12.7714 22.4011 14.9268 23.3285 17.5857 23.3285Z" fill="white"/>
<path d="M17.5857 22.8425C19.637 22.8425 21.3 22.1326 21.3 21.2568C21.3 20.3811 19.637 19.6711 17.5857 19.6711C15.5343 19.6711 13.8714 20.3811 13.8714 21.2568C13.8714 22.1326 15.5343 22.8425 17.5857 22.8425Z" fill="#1226AA"/>
</svg>
