<svg width="24" height="20" viewBox="0 0 24 20" fill="none" xmlns="http://www.w3.org/2000/svg">
<path d="M24 1.98897C23.8594 2.64884 23.7155 3.30777 23.5781 3.96856C22.7719 7.8822 21.9667 11.796 21.1627 15.7099C20.9845 16.5756 20.8059 17.4411 20.6269 18.3065C20.6142 18.3665 20.6002 18.426 20.5847 18.4855C20.2125 19.9326 18.8339 20.4494 17.6123 19.5657C16.7827 18.9659 15.9994 18.3028 15.1955 17.6674C14.6972 17.2733 14.1989 16.8783 13.6866 16.4722C13.2609 16.8575 12.8428 17.2355 12.4237 17.6143C11.9863 18.0102 11.5497 18.4063 11.1141 18.8025C10.6008 19.264 10.0116 19.5445 9.30141 19.4107C8.53922 19.2672 8.07797 18.7647 7.82344 18.0725C7.44094 17.0334 7.07672 15.9873 6.70547 14.9444C6.33422 13.9016 5.96016 12.8587 5.59641 11.8131C5.54531 11.6654 5.46984 11.5902 5.31797 11.5477C4.00547 11.1837 2.69297 10.8122 1.38047 10.4426C1.30594 10.4214 1.23047 10.4011 1.15734 10.3752C0.625313 10.1833 0.1875 9.88747 0 9.32682V8.91152C0.129375 8.70526 0.216563 8.45008 0.397031 8.30519C0.681433 8.07989 0.999376 7.89904 1.33969 7.76899C7.39563 5.48301 13.4539 3.20395 19.5145 0.931811C20.2861 0.642026 21.0516 0.329169 21.8395 0.0892191C22.8877 -0.230099 23.8083 0.338397 23.9663 1.30512C23.9743 1.33427 23.9856 1.36244 24 1.3891V1.98897ZM11.5495 12.9939C11.6902 13.1079 11.8172 13.2103 11.9442 13.3114C14.0545 14.9852 16.1652 16.6587 18.2761 18.3319C18.8513 18.7878 19.1198 18.6872 19.2647 17.9719C19.4095 17.2567 19.5558 16.5415 19.7025 15.8258C20.6566 11.1886 21.6097 6.5514 22.5619 1.91422C22.5806 1.81625 22.5897 1.71674 22.5891 1.61705C22.5914 1.44032 22.4953 1.35449 22.3209 1.3951C22.1398 1.4394 21.9617 1.49536 21.788 1.5626C15.1802 4.04362 8.5725 6.52633 1.965 9.01073C1.91062 9.03103 1.86 9.06057 1.77 9.10302C1.84266 9.12794 1.87547 9.14132 1.91063 9.14916C3.22969 9.52155 4.54781 9.89578 5.86922 10.2594C5.95922 10.2843 6.08344 10.2539 6.17109 10.2096C9.41016 8.58528 12.6478 6.95793 15.8841 5.3275C16.5872 4.9745 17.2866 4.61965 17.9902 4.27034C18.3412 4.09592 18.705 4.17021 18.915 4.44707C19.125 4.72394 19.0964 5.08109 18.833 5.37273C18.7659 5.44748 18.6947 5.519 18.6248 5.59191L12.9375 11.5399L11.5495 12.9939ZM8.84672 16.7731C8.88141 16.66 8.89688 16.6176 8.90766 16.5742C9.19828 15.4206 9.49453 14.267 9.77437 13.1093C9.83719 12.8479 9.97159 12.6085 10.163 12.4171C11.7295 10.7867 13.292 9.15301 14.8505 7.51612C14.8922 7.47228 14.9269 7.42383 14.9648 7.37769L14.9405 7.35923L6.93234 11.3876C7.5675 13.1706 8.19703 14.9426 8.84672 16.7731ZM10.9308 14.2869L10.0402 17.8358L10.0791 17.8575L12.577 15.5927L10.9308 14.2869Z" fill="#FF671D"/>
</svg>
