<svg width="32" height="38" viewBox="0 0 32 38" fill="none" xmlns="http://www.w3.org/2000/svg">
<path d="M21.7346 0.187688L11.3522 18.1943L12.9734 19.1291L23.3558 1.12247L21.7346 0.187688Z" fill="#1226AA"/>
<path d="M24.5665 1.78079L12.5171 18.7349L14.0425 19.819L26.0919 2.8649L24.5665 1.78079Z" fill="#1226AA"/>
<path d="M26.9428 13.9859L22.6286 10.4716C22.2 10.1287 21.6428 9.92871 21.0571 9.92871H6.14279C5.55707 9.92871 4.98568 10.1144 4.57139 10.4716L0.25708 13.9859H26.9428Z" fill="#1226AA"/>
<path d="M22 32.5856H5.21425C4.32854 32.5856 3.57141 32.0285 3.44284 31.2856L0.271362 13.9856H26.9428L23.7714 31.2856C23.6428 32.0285 22.8857 32.5856 22 32.5856Z" fill="#1226AA"/>
<path d="M24.9713 13.9856L21.9427 22.4142C21.7999 22.7999 21.4428 23.057 21.0285 23.057H6.19995C5.78567 23.057 5.4285 22.7999 5.28564 22.4142L2.25708 13.9856H24.9713Z" fill="white"/>
<path d="M15.5714 22.5283H11.6428V24.614H15.5714V22.5283Z" fill="white"/>
<path d="M10.4572 24.0852V24.8709H10.4715C10.5286 26.5709 11.9143 27.9281 13.6143 27.9281C15.3286 27.9281 16.7 26.5709 16.7571 24.8709H16.7714V24.0852H10.4572Z" fill="white"/>
<path d="M31.7285 28.1853H17.9427V34.4996H31.7285V28.1853Z" fill="#1226AA"/>
<path d="M24.8285 31.1428C28.6313 31.1428 31.7142 29.8188 31.7142 28.1857C31.7142 26.5525 28.6313 25.2285 24.8285 25.2285C21.0256 25.2285 17.9427 26.5525 17.9427 28.1857C17.9427 29.8188 21.0256 31.1428 24.8285 31.1428Z" fill="white"/>
<path d="M24.8285 37.4568C28.6313 37.4568 31.7142 36.1328 31.7142 34.4996C31.7142 32.8664 28.6313 31.5425 24.8285 31.5425C21.0256 31.5425 17.9427 32.8664 17.9427 34.4996C17.9427 36.1328 21.0256 37.4568 24.8285 37.4568Z" fill="#1226AA"/>
<path d="M24.8284 30.6428C27.9922 30.6428 30.557 29.5427 30.557 28.1857C30.557 26.8286 27.9922 25.7285 24.8284 25.7285C21.6646 25.7285 19.0999 26.8286 19.0999 28.1857C19.0999 29.5427 21.6646 30.6428 24.8284 30.6428Z" fill="white"/>
<path d="M24.8285 29.7853C27.6767 29.7853 29.9856 28.9858 29.9856 27.9996C29.9856 27.0134 27.6767 26.2139 24.8285 26.2139C21.9803 26.2139 19.6714 27.0134 19.6714 27.9996C19.6714 28.9858 21.9803 29.7853 24.8285 29.7853Z" fill="#1226AA"/>
</svg>
