<svg width="26" height="31" viewBox="0 0 26 31" fill="none" xmlns="http://www.w3.org/2000/svg">
<path d="M13 30.0714C8.44284 30.0714 0.728516 29.1428 0.728516 25.6857V25.5857L3.05709 11.4857C3.21424 8.45711 9.35713 7.64282 13 7.64282C16.6428 7.64282 22.7856 8.45711 22.9428 11.4857L25.2714 25.5857V25.6857C25.2571 29.1428 17.5571 30.0714 13 30.0714Z" fill="#1226AA"/>
<path d="M21.7142 11.5995C21.7142 10.0853 17.8142 8.85669 12.9999 8.85669C8.18566 8.85669 4.28561 10.0853 4.28561 11.5995L1.95703 25.6853C1.95703 27.4281 6.89995 28.8424 12.9999 28.8424C19.0999 28.8424 24.0428 27.4281 24.0428 25.6853L21.7142 11.5995Z" fill="#1226AA"/>
<path d="M22.0857 14.0711L21.7142 11.5997H16.7999C15.6428 11.4425 14.3571 11.3425 13 11.3425C11.6428 11.3425 10.3571 11.4282 9.19992 11.5997H4.28563L3.91418 14.0854C3.91418 14.6425 4.45708 15.1568 5.38566 15.5854C5.7428 15.7568 5.97133 16.114 5.97133 16.514V21.214C5.97133 21.714 6.38564 22.1282 6.88564 22.1282C7.38564 22.1282 7.79994 21.714 7.79994 21.214V19.4282C7.79994 18.7425 8.35709 18.1711 9.05709 18.1711C9.74281 18.1711 10.3142 18.7282 10.3142 19.4282V19.8568C10.3142 20.4854 10.8285 20.9997 11.4571 20.9997C12.0857 20.9997 12.5999 20.4854 12.5999 19.8568V17.814C12.5999 17.2568 13.0571 16.7854 13.6142 16.7854C13.9714 16.7854 14.2999 16.7711 14.3713 16.7711C14.5571 16.7568 14.7428 16.7568 14.9285 16.7425C15.4999 16.6997 16.057 16.6425 16.5856 16.5854C17.1999 16.4997 17.7427 16.9854 17.7427 17.5997V21.0282C17.7427 21.5854 18.1999 22.0425 18.7571 22.0425C19.3142 22.0425 19.7714 21.5854 19.7714 21.0282V16.5997C19.7714 16.1854 20.0142 15.814 20.4 15.6568C21.4571 15.214 22.0857 14.6568 22.0857 14.0711Z" fill="white"/>
<path d="M13 14.3424C17.8127 14.3424 21.7142 13.1144 21.7142 11.5995C21.7142 10.0847 17.8127 8.85669 13 8.85669C8.18722 8.85669 4.28564 10.0847 4.28564 11.5995C4.28564 13.1144 8.18722 14.3424 13 14.3424Z" fill="white"/>
<path d="M7.77135 5.64255C7.77135 5.64255 7.55709 5.52826 7.17138 5.55683C6.69995 5.5854 6.47133 5.75683 5.78562 6.32826C5.0999 6.89969 5.02855 6.99969 5.05712 7.25683C5.09998 7.51397 5.21425 7.5854 6.02854 7.91397C6.84282 8.25683 7.12849 8.32826 7.58563 8.22826C7.95706 8.14255 8.1285 7.97112 8.1285 7.97112L9.99992 6.34255L7.77135 5.64255Z" fill="#1226AA"/>
<path d="M9.60003 3.14261C9.60003 3.14261 9.42861 2.97118 9.3429 2.59975C9.22861 2.14261 9.31428 1.87118 9.65714 1.04261C10 0.214038 10.0715 0.114037 10.3286 0.0711801C10.5858 0.028323 10.6857 0.114038 11.2571 0.799752C11.8286 1.48547 11.9857 1.71404 12.0285 2.18547C12.0571 2.55689 11.9428 2.78547 11.9428 2.78547L10.9571 5.05689L9.60003 3.14261Z" fill="#1226AA"/>
<path d="M10.1857 3.51372C10.1857 3.51372 10.0857 3.19944 9.7 2.85658C9.22857 2.44229 8.84285 2.37086 7.64285 2.27086C6.45714 2.17086 6.27137 2.18515 6.07137 2.47086C5.87137 2.75658 5.89997 2.92801 6.3714 4.02801C6.82854 5.12801 7.01428 5.47086 7.55714 5.79944C8 6.07086 8.32854 6.07086 8.32854 6.07086L10.1857 3.51372Z" fill="#1226AA"/>
<path d="M18.4571 9.37123L17.0571 5.04266C16.0285 1.87123 11.8428 1.19981 9.88562 3.89981L8.59996 5.65695C6.64282 8.35695 8.55709 12.1284 11.8857 12.1427L16.4428 12.1569C17.8714 12.1569 18.8999 10.7427 18.4571 9.37123Z" fill="#1226AA"/>
<path d="M12.8143 2.24285L10.5285 5.3857C8.68564 7.92856 10.4714 11.4857 13.6143 11.5286L17.8857 11.5714C18.4571 11.0286 18.7142 10.2 18.4571 9.3857L17.0571 5.05713C16.4142 3.0857 14.5857 2.09999 12.8143 2.24285Z" fill="#1226AA"/>
</svg>
