<svg width="446" height="50" viewBox="0 0 446 50" fill="none" xmlns="http://www.w3.org/2000/svg">
<g clip-path="url(#clip0_8_13283)">
<path d="M360.774 37.9115C365.882 37.9115 368.863 36.2289 368.845 33.3577C368.845 30.4864 365.391 29.7732 360.047 28.2187C352.43 26.079 342.814 23.3357 342.796 13.515C342.796 5.13897 349.794 -2.23238e-05 360.846 -0.0183105C367.39 -0.0183105 372.971 1.77394 378.079 5.46816L372.644 13.1492C369.317 10.406 364.918 8.85148 360.519 8.85148C355.884 8.85148 352.921 10.534 352.921 13.0395C352.921 15.673 356.375 16.9897 362.428 18.654C369.917 20.684 379.188 23.2992 379.188 32.6262C379.188 41.4777 372.298 46.6167 360.537 46.6349C352.921 46.6349 345.795 44.2575 341.033 39.9597L346.613 32.297C350.303 35.8815 355.302 37.9115 360.774 37.9115Z" fill="#1226AA"/>
<path d="M323.673 0.841286V27.6152C323.673 34.071 320.11 37.7835 313.694 37.7835C307.277 37.7835 303.714 34.0893 303.696 27.6335L303.678 0.841286H293.462L293.48 27.9993C293.48 39.4843 301.096 46.891 313.694 46.8727C326.291 46.8727 333.889 39.4477 333.889 27.9627L333.871 0.822998H323.673V0.841286Z" fill="#1226AA"/>
<path d="M415.562 0.786355V23.8295H397.02V0.786355L386.768 0.804643V46.2509L397.02 46.2326V33.7234H415.562V46.2143H425.778V0.768066L415.562 0.786355Z" fill="#1226AA"/>
<path d="M445.918 0.768066H435.684V46.2143H445.918V0.768066Z" fill="#1226AA"/>
<path d="M256.179 24.0857C258.033 11.3388 243.109 2.26782 243.109 2.26782C243.109 2.26782 244.654 4.38926 244.109 8.46753L249.726 16.2949L243.436 11.3754C243.2 12.0886 242.891 12.8567 242.509 13.6431L248.962 22.6592L241.219 16.6058C240.982 17.3007 240.783 17.9957 240.637 18.6541L247.363 28.0542L240.419 22.6226C240.982 28.3285 245.327 32.3702 248.635 34.638C245 32.9189 239.346 31.1632 234.166 33.5407L242.328 36.8508L230.857 35.7536C230.348 36.2108 229.858 36.7228 229.385 37.2898L238.492 40.9657L227.495 39.905C227.004 40.6365 226.513 41.2766 226.022 41.8435L233.421 44.8428L223.877 43.9101C220.66 46.4339 218.06 46.1596 218.06 46.1596C218.06 46.1596 233.366 54.5539 243.382 46.5253C245.236 45.044 246.818 43.5261 248.126 42.1544C251.271 38.8626 253.58 34.8026 254.834 30.4134C255.325 28.5846 255.834 26.4449 256.179 24.0857Z" fill="#FF671D"/>
<path d="M270.63 18.9283C264.559 17.2641 261.105 15.9474 261.105 13.2956C261.105 10.7718 264.086 9.10756 268.722 9.08927C271.085 9.08927 273.448 9.52819 275.647 10.3694C279.065 11.6679 282.9 10.534 285.027 7.55306L286.336 5.72424C285.045 4.79154 283.718 3.96857 282.373 3.27362C278.338 1.20705 273.975 0.219482 269.067 0.219482C261.232 0.219482 255.452 2.81641 252.725 7.29703C256.397 11.5399 259.669 17.4287 258.651 24.4331C258.615 24.6343 258.578 24.8171 258.542 25.0183C261.578 26.5911 265.086 27.597 268.267 28.4931C273.63 30.0476 277.083 30.7608 277.083 33.6321C277.083 36.5033 274.102 38.1858 268.994 38.1858C264.214 38.1858 259.796 36.6313 256.288 33.8515C255.143 36.7959 253.525 39.5574 251.544 42.0264C256.161 45.1902 262.287 46.9459 268.776 46.9276C280.555 46.9276 287.463 41.7703 287.463 32.9005C287.408 23.5735 278.12 20.9583 270.63 18.9283Z" fill="#1226AA"/>
<path d="M148.767 0.75H137.642H130.407L130.444 46.2145H140.55V37.2716H148.785C158.801 37.2716 166.926 29.0967 166.926 19.0199C166.926 8.94312 158.783 0.75 148.767 0.75ZM148.149 28.4201H140.514V9.6015H148.149C153.311 9.6015 157.492 13.8078 157.492 19.0016C157.492 24.1955 153.311 28.4201 148.149 28.4201Z" fill="#1226AA"/>
<path d="M192.03 0.274414C180.778 0.274414 171.653 9.4551 171.653 20.7755V26.2254C171.653 37.5458 180.778 46.7265 192.03 46.7265C203.282 46.7265 212.407 38.0762 212.407 26.7558V20.7938C212.407 9.4551 203.282 0.274414 192.03 0.274414ZM203.1 25.6402C203.1 31.785 198.138 36.7777 192.03 36.7777C185.922 36.7777 180.96 31.785 180.96 25.6402V21.3424C180.96 15.1976 185.922 10.2049 192.03 10.2049C198.138 10.2049 203.1 15.1976 203.1 21.3424V25.6402Z" fill="#1226AA"/>
<path d="M106.812 0.75H95.6876H88.4529L88.4892 46.2145H98.5961V37.2716H106.831C116.847 37.2716 124.972 29.0967 124.972 19.0199C124.972 8.94312 116.847 0.75 106.812 0.75ZM106.213 28.4201H98.5779V9.6015H106.213C111.375 9.6015 115.556 13.8078 115.556 19.0016C115.556 24.1955 111.375 28.4201 106.213 28.4201Z" fill="#1226AA"/>
<path d="M82.7268 37.3264L65.258 0.695068H60.1864H55.1148L37.646 37.3264V46.2693H45.0989L49.2979 37.3081H71.0749L75.2558 46.2327L82.7268 46.251V37.3264ZM53.4788 28.42L60.2046 14.082L66.9303 28.42H53.4788Z" fill="#1226AA"/>
<path d="M44.6264 0.695068H32.9926L22.3223 23.5005L11.6338 0.695068H0L17.1961 36.7594V46.2693H27.4302V36.7594L44.6264 0.695068Z" fill="#1226AA"/>
</g>
<defs>
<clipPath id="clip0_8_13283">
<rect width="445.918" height="50" fill="white"/>
</clipPath>
</defs>
</svg>
