<svg width="30" height="39" viewBox="0 0 30 39" fill="none" xmlns="http://www.w3.org/2000/svg">
<path d="M15.065 21.0194C18.4146 21.0194 21.13 18.2946 21.13 14.9334C21.13 11.5722 18.4146 8.84741 15.065 8.84741C11.7154 8.84741 9 11.5722 9 14.9334C9 18.2946 11.7154 21.0194 15.065 21.0194Z" stroke="#1226AA" stroke-width="3" stroke-miterlimit="10" stroke-linecap="round" stroke-linejoin="round"/>
<path d="M15.0065 37C15.1151 36.8554 15.1875 36.771 15.2598 36.6746C17.1175 34.2402 18.9993 31.8058 20.8449 29.3473C22.4372 27.2262 24.0657 25.1293 25.5252 22.9238C27.5156 19.911 28.3841 16.5847 27.8413 12.9331C26.7315 5.67812 19.3853 0.664689 12.22 2.31575C4.49988 4.11142 0.145223 12.0052 2.76284 19.4892C3.53486 21.7066 4.80144 23.6469 6.21279 25.4908C8.35995 28.3229 10.5674 31.1189 12.7267 33.951C13.4987 34.9392 14.2225 35.9515 15.0065 37Z" stroke="#1226AA" stroke-width="3" stroke-miterlimit="10" stroke-linecap="round" stroke-linejoin="round"/>
</svg>
