<svg width="30" height="36" viewBox="0 0 30 36" fill="none" xmlns="http://www.w3.org/2000/svg">
<path d="M15 25.3857C23.2843 25.3857 30 22.5075 30 18.9571C30 15.4067 23.2843 12.5286 15 12.5286C6.71573 12.5286 0 15.4067 0 18.9571C0 22.5075 6.71573 25.3857 15 25.3857Z" fill="#1226AA"/>
<path d="M0 18.9573V19.7001C0 27.6573 6.04281 34.5287 13.9714 35.0287C14.3142 35.043 14.6571 35.0573 15 35.0573C15.3429 35.0573 15.6857 35.043 16.0285 35.0287C23.9714 34.5287 30 27.643 30 19.7001V18.9573H0Z" fill="#1226AA"/>
<path d="M15 23.9001C22.1639 23.9001 27.9715 21.6871 27.9715 18.9573C27.9715 16.2274 22.1639 14.0144 15 14.0144C7.83609 14.0144 2.02856 16.2274 2.02856 18.9573C2.02856 21.6871 7.83609 23.9001 15 23.9001Z" fill="white"/>
<path d="M13.2429 0.714355C13.2429 0.714355 7.65715 4.02864 7.37143 9.80007C7.15715 14.0144 10.6715 14.7572 12.3143 16.5858C13.9715 18.4144 13.2286 20.9858 13.2286 20.9858C13.2286 20.9858 18.4286 15.1572 14.3715 10.8429C10.8858 7.14293 10.8572 4.30007 13.2429 0.714355Z" fill="#1226AA"/>
<path d="M15.9287 9.27173C15.9287 9.27173 18.8144 11.5717 18.8859 14.6717C18.9573 17.7717 16.5859 19.486 16.5859 19.486C16.5859 19.486 23.6001 17.7289 21.4716 12.6003C20.3144 9.8003 15.9287 9.27173 15.9287 9.27173Z" fill="#1226AA"/>
</svg>
