<svg width="45" height="24" viewBox="0 0 45 24" fill="none" xmlns="http://www.w3.org/2000/svg">
<path d="M29.4141 8.07178C31.7998 8.07178 33.7284 10.4861 33.7284 13.4861V18.3718C33.7284 21.6432 27.5855 23.1003 19.9855 23.1003C12.3998 23.1003 6.24268 21.6432 6.24268 18.3718V13.4861C6.24268 10.5004 8.17123 8.07178 10.5569 8.07178H29.4141Z" fill="#1226AA"/>
<path d="M0.842773 14.7711C6.59992 17.0568 8.62849 12.4283 21.5571 13.1426C35.3571 13.914 38.1714 18.6568 37.4571 15.0426C36.3142 9.2997 27.2142 3.21399 19.9999 3.5997C10.9999 4.08542 4.78563 7.81399 0.842773 14.7711Z" fill="white"/>
<path d="M0.842773 12.5712C6.59992 14.8569 8.62849 10.2283 21.5571 10.9426C35.3571 11.714 38.1714 16.4569 37.4571 12.8426C36.3142 7.09975 27.2142 1.01404 19.9999 1.39975C10.9999 1.88547 4.78563 5.61404 0.842773 12.5712Z" fill="#1226AA"/>
<path d="M20 0.671387C21.0857 0.671387 22.1429 0.72853 23.1857 0.799958V23.6571H16.8V0.799958C17.8572 0.714244 18.9143 0.671387 20 0.671387Z" fill="white"/>
<path d="M33.7284 12.5284C33.657 13.2855 34.5427 15.1284 35.5856 17.0855C36.9713 19.6569 38.357 21.4141 38.6284 20.4141C38.8999 19.4141 37.4856 15.8569 37.4856 15.8569C37.4856 15.8569 40.6141 18.6141 41.2427 18.0284C41.8713 17.4426 39.0998 14.4141 39.0998 14.4141C39.0998 14.4141 41.2856 15.4426 42.557 15.7998C43.8284 16.1712 44.3998 15.9998 43.7427 15.3141C43.0856 14.6141 41.0999 13.0712 39.1141 11.9998C37.1284 10.9426 35.657 10.3855 35.657 10.3855L33.7284 11.6426C33.7284 11.6426 33.7855 11.7712 33.7284 12.5284Z" fill="#1226AA"/>
</svg>
