<svg width="30" height="34" viewBox="0 0 30 34" fill="none" xmlns="http://www.w3.org/2000/svg">
<path d="M29.8858 12.9137L25.0715 8.99941C24.6001 8.6137 23.9715 8.39941 23.3144 8.39941H6.67154C6.01439 8.39941 5.38581 8.6137 4.91438 8.99941L0.100098 12.9137H29.8858Z" fill="#1226AA"/>
<path d="M4.43903 2.28681L4.29834 3.93799L27.3579 5.90282L27.4986 4.25163L4.43903 2.28681Z" fill="#1226AA"/>
<path d="M9.7144 14.9427H8.05729C8.05729 14.3855 7.8287 14.1427 7.45728 13.7427C7.01442 13.2712 6.40015 12.6141 6.40015 11.4141C6.40015 10.1998 7.01442 9.55694 7.45728 9.07123C7.8287 8.67123 8.05729 8.42837 8.05729 7.87123C8.05729 7.31408 7.8287 7.08551 7.45728 6.68551C7.01442 6.21408 6.40015 5.55694 6.40015 4.35694C6.40015 3.14265 7.01442 2.4998 7.45728 2.02837C7.8287 1.62837 8.05729 1.38551 8.05729 0.828369H9.7144C9.7144 2.04265 9.10013 2.68551 8.65727 3.15694C8.28584 3.55694 8.05729 3.7998 8.05729 4.34265C8.05729 4.8998 8.28584 5.14265 8.65727 5.54265C9.10013 6.01408 9.7144 6.67123 9.7144 7.87123C9.7144 9.08551 9.10013 9.72837 8.65727 10.2141C8.28584 10.6141 8.05729 10.8569 8.05729 11.4141C8.05729 11.9712 8.28584 12.2141 8.65727 12.6141C9.11441 13.0855 9.7144 13.7284 9.7144 14.9427Z" fill="#1226AA"/>
<path d="M12.6143 14.9427H10.9572C10.9572 14.3855 10.7286 14.1427 10.3572 13.7427C9.91432 13.2712 9.30005 12.6141 9.30005 11.4141C9.30005 10.1998 9.91432 9.55694 10.3572 9.07123C10.7286 8.67123 10.9572 8.42837 10.9572 7.87123C10.9572 7.31408 10.7286 7.08551 10.3572 6.68551C9.91432 6.21408 9.30005 5.55694 9.30005 4.35694C9.30005 3.14265 9.91432 2.4998 10.3572 2.02837C10.7286 1.62837 10.9572 1.38551 10.9572 0.828369H12.6143C12.6143 2.04265 12 2.68551 11.5572 3.15694C11.1857 3.55694 10.9572 3.7998 10.9572 4.34265C10.9572 4.8998 11.1857 5.14265 11.5572 5.54265C12 6.01408 12.6143 6.67123 12.6143 7.87123C12.6143 9.08551 12 9.72837 11.5572 10.2141C11.1857 10.6141 10.9572 10.8569 10.9572 11.4141C10.9572 11.9712 11.1857 12.2141 11.5572 12.6141C12 13.0855 12.6143 13.7284 12.6143 14.9427Z" fill="#1226AA"/>
<path d="M15.5145 14.9427H13.8573C13.8573 14.3855 13.6288 14.1427 13.2573 13.7427C12.8145 13.2712 12.2002 12.6141 12.2002 11.4141C12.2002 10.1998 12.8145 9.55694 13.2573 9.07123C13.6288 8.67123 13.8573 8.42837 13.8573 7.87123C13.8573 7.31408 13.6288 7.08551 13.2573 6.68551C12.8145 6.21408 12.2002 5.55694 12.2002 4.35694C12.2002 3.14265 12.8145 2.4998 13.2573 2.02837C13.6288 1.62837 13.8573 1.38551 13.8573 0.828369H15.5145C15.5145 2.04265 14.9002 2.68551 14.4573 3.15694C14.0859 3.55694 13.8573 3.7998 13.8573 4.34265C13.8573 4.8998 14.0859 5.14265 14.4573 5.54265C14.9002 6.01408 15.5145 6.67123 15.5145 7.87123C15.5145 9.08551 14.9002 9.72837 14.4573 10.2141C14.0859 10.6141 13.8573 10.8569 13.8573 11.4141C13.8573 11.9712 14.0859 12.2141 14.4573 12.6141C14.9002 13.0855 15.5145 13.7284 15.5145 14.9427Z" fill="#1226AA"/>
<path d="M27.443 0.770996H4.37158V2.42814H27.443V0.770996Z" fill="#1226AA"/>
<path d="M24.3715 33.6855H5.64297C4.65726 33.6855 3.81439 33.0712 3.67154 32.2283L0.128662 12.9141H29.9001L26.3573 32.2283C26.2001 33.0569 25.3572 33.6855 24.3715 33.6855Z" fill="#1226AA"/>
<path d="M27.6716 12.9141L24.2859 22.3141C24.1287 22.7426 23.7288 23.0283 23.2716 23.0283H6.71448C6.25733 23.0283 5.8573 22.7426 5.70016 22.3141L2.31445 12.9141H27.6716Z" fill="white"/>
<path d="M17.1858 22.457H12.8V24.7856H17.1858V22.457Z" fill="white"/>
<path d="M11.4714 24.1855V25.057H11.4857C11.5429 26.9427 13.0857 28.4713 15 28.4713C16.9 28.4713 18.4429 26.957 18.5143 25.057H18.5286V24.1855H11.4714Z" fill="white"/>
</svg>
